<?xml version="1.0" standalone="no"?><!DOCTYPE svg PUBLIC "-//W3C//DTD SVG 1.1//EN" "http://www.w3.org/Graphics/SVG/1.1/DTD/svg11.dtd"><svg t="1603804038140" class="icon" viewBox="0 0 1024 1024" version="1.1" xmlns="http://www.w3.org/2000/svg" p-id="1768" xmlns:xlink="http://www.w3.org/1999/xlink" width="200" height="200"><defs><style type="text/css"></style></defs><path d="M219.8 60.4h27.4v28h-27.4z" fill="#206BAB" p-id="1769"></path><path d="M583 927.4h28v27.4h-28z" fill="#FFFFFF" p-id="1770"></path><path d="M121.6 172.2h782.9v573.2H121.6z" fill="#EEAC38" p-id="1771"></path><path d="M121.6 172.2H513v573.2H121.6z" fill="#F0BB5D" p-id="1772"></path><path d="M684.6 619.6h-28.2c-41.3 26.5-90.5 41.9-143.3 41.9-52.8 0-102-15.4-143.3-41.9h-28.2C197 619.6 79.7 736.8 79.7 881.4V955l866.8 0.3v-74c0-144.5-117.3-261.7-261.9-261.7z m0 0" fill="#206BAB" p-id="1773"></path><path d="M764.7 312c46.3 0 83.9 37.6 83.9 83.9 0 46.3-37.6 83.9-83.9 83.9M261.4 479.8c-46.3 0-83.9-37.6-83.9-83.9 0-46.3 37.6-83.9 83.9-83.9" fill="#FFFFFF" p-id="1774"></path><path d="M778.7 395.9c0 146.7-118.9 265.6-265.6 265.6S247.5 542.6 247.5 395.9s118.9-265.6 265.6-265.6 265.6 118.9 265.6 265.6z m0 0" fill="#206BAB" p-id="1775"></path><path d="M778.7 186.2c0 30.9-25 55.9-55.9 55.9s-55.9-25-55.9-55.9 25-55.9 55.9-55.9 55.9 25 55.9 55.9z m0 0" fill="#F0BB5D" p-id="1776"></path><path d="M513.1 661.5c-146.7 0-265.6-118.9-265.6-265.6s118.9-265.6 265.6-265.6" fill="#74A2CA" p-id="1777"></path><path d="M722.8 395.9c0 115.8-93.9 209.7-209.7 209.7s-209.7-93.9-209.7-209.7 93.9-209.7 209.7-209.7 209.7 93.9 209.7 209.7z m0 0" fill="#FFFFFF" p-id="1778"></path><path d="M918.5 759.4c-46.3 0-83.9 37.6-83.9 83.9 0 46.3 37.6 83.9 83.9 83.9h28c0-0.1 8.3-135.5-28-167.8M750.8 633.5l-83.9-14c-78.5 45.3-153.8 41.9-153.8 41.9v69.9c0 0.1 130.3 8.8 237.7-97.8z m0 0" fill="#EEAC38" p-id="1779"></path><path d="M471.2 731.4v41.9h181.7V955H79.7v-73.8c0-116.6 76.3-215.5 181.7-249.2 0 0 78.7 94.1 209.8 99.4z m0 0" fill="#74A2CA" p-id="1780"></path><path d="M261.4 633.5l97.9-14c91.7 48.1 153.8 41.9 153.8 41.9v69.9c0 0.1-144.3 8.8-251.7-97.8z m0 0" fill="#EEAC38" p-id="1781"></path><path d="M79.7 840.4h125.8v86.7H79.7z" fill="#F0BB5D" p-id="1782"></path><path d="M513.1 619.3c-123.2 0-223.4-100.2-223.4-223.4s100.2-223.4 223.4-223.4 223.4 100.2 223.4 223.4-100.2 223.4-223.4 223.4z m0-419.4c-108.1 0-196 87.9-196 196s87.9 196 196 196 196-87.9 196-196-87.9-196-196-196z m0 0M262.4 955.2l-0.8-125.6h55.7V857h-28.2l0.6 98.1-27.3 0.1z m0 0" fill="#1C1C1A" p-id="1783"></path><path d="M583 815.5h28v27.4h-28zM583 871.5h28v27.4h-28zM708.8 172.5h28v27.4h-28z" fill="#FFFFFF" p-id="1784"></path><path d="M383 363.6l-19.4-19.4 55.9-55.9 19.4 19.4-55.9 55.9z m0 0M383 461.5l-19.4-19.4 181.7-181.7 19.4 19.4L383 461.5z m0 0M522.8 433.5l-19.4-19.4 41.9-41.9 19.4 19.4-41.9 41.9z m0 0M522.8 531.4L503.4 512l139.8-139.8 19.4 19.4-139.8 139.8z m0 0" fill="#1C1C1A" p-id="1785"></path><path d="M163.9 507.7h27.4v28h-27.4zM163.9 549.7h27.4v28h-27.4zM163.9 591.6h27.4v28h-27.4z" fill="#FFFFFF" p-id="1786"></path><path d="M722.8 856.9h28.1l-0.6 98.1 27.4 0.2 0.8-125.6h-55.7v27.3z m0 0" fill="#1C1C1A" p-id="1787"></path><path d="M960.3 884v-0.3c0-53.8-15.5-104.1-42.1-146.8V158.5H786.7c-10.7-24.7-35.3-41.9-63.9-41.9-28.3 0-52.7 17-63.6 41.3-43.9-27-94-41.3-146.1-41.3-53.9 0-104.3 15.4-147 41.9H261.4v27.4H329c-34.6 30.3-61.6 69-77.9 112.9-1.3 0.1-2.7 0.3-4 0.5v-197h-27.4v205.4c-33 15.7-55.9 49.3-55.9 88.2 0 50.3 38.3 91.9 87.3 97 16.4 44.1 43.6 83 78.4 113.3-19.5 1-38.9 4-57.7 9.1-4.9 1.3-9.9 2.8-14.7 4.4-48.3 15.9-89.9 44-121.8 80.2v-514h70.2v-27.4h-97.6v578.3C81.1 779.8 66 830.5 66 883.9l-0.4 71.1 27.4 0.1 0.1-14.3h126.1V829.5H99.4c2.1-9.7 4.8-19.2 8.1-28.5h56.1v-27.4h-44.7c4.8-9.8 10.1-19.2 16.1-28.2h0.3v-0.5c29-43.6 71.7-78 123.3-96.6 22.8 18.3 104.9 79.3 198.7 95V787H639v168h27.4V759.6H484.9V744c9.3 0.7 18.8 1.1 28.2 1.1 92.3 0 179.1-35.6 244.8-100.2 54.9 17.4 101.6 53.2 133 100.1v0.3h0.2c0.2 0.4 0.5 0.7 0.7 1.1-40.9 11.7-70.9 49.3-70.9 93.8 0 53.8 43.8 97.6 97.6 97.6h13.4l-0.3 17.4 28.7 0.1V884z m-768.5-27.1v56.5H93.3l0.1-15.6 70 1 0.4-27.4-70-1c0.2-4.5 0.6-9 1.1-13.5h96.9z m531-712.9c23.3 0 42.2 18.9 42.2 42.2 0 23.3-18.9 42.2-42.2 42.2-23.3 0-42.2-18.9-42.2-42.2 0-23.3 18.9-42.2 42.2-42.2zM191.3 395.9c0-31.9 21.5-59 50.7-67.4-5.4 21.6-8.2 44.2-8.2 67.4 0 23.2 2.9 45.8 8.2 67.4-29.3-8.5-50.7-35.5-50.7-67.4z m69.9 0c0-138.9 113-251.9 251.9-251.9 50.3 0 98.6 14.7 140.1 42.6 0.2 38.1 31.2 69.1 69.3 69.3 27.8 41.5 42.6 89.8 42.6 140.1 0 138.9-113 251.9-251.9 251.9-139-0.1-252-113.1-252-252z m523-67.4c29.2 8.5 50.7 35.5 50.7 67.4 0 31.9-21.5 59-50.7 67.4 5.4-21.6 8.2-44.2 8.2-67.4 0-23-2.8-45.6-8.2-67.4zM499.4 674.9v42.5c-74.2-3.1-143.8-31.2-199.3-80.3 14.5-2.6 29.2-3.9 44-3.9h22c39 24.4 84.5 39.3 133.3 41.7z m27.4 42.5v-42.5c48.7-2.4 94.2-17.3 133.3-41.6h22.1c14.9 0 29.6 1.3 43.8 3.8-55.3 49.1-125 77.2-199.2 80.3z m169.9-111.2c34.8-30.4 62-69.2 78.4-113.3 49-5.2 87.3-46.7 87.3-97s-38.3-91.8-87.2-97c-6.3-17-14.3-33.5-24-49.1 24.3-10.9 41.3-35.3 41.3-63.6v-0.3h98.4v514.3c-48.1-54.4-117.1-90-194.2-94z m221.8 304.3c-38.7 0-70.2-31.5-70.2-70.2 0-34.5 25-63.2 57.8-69.1 9.2 18.3 16.3 37.8 20.8 58.3h-36.4v27.4h40.9c0.9 8.8 1.4 17.7 1.5 26.7l-0.5 26.9h-13.9z m0 0" fill="#1C1C1A" p-id="1788"></path></svg>